<svg id="BAckground" xmlns="http://www.w3.org/2000/svg" xmlns:xlink="http://www.w3.org/1999/xlink" viewBox="0 0 805.25 800"><defs><style>.cls-1{fill:url(#linear-gradient);}.cls-2{fill:url(#linear-gradient-2);}.cls-3{fill:url(#linear-gradient-3);}</style><linearGradient id="linear-gradient" x1="5.15" y1="411.93" x2="791.1" y2="349.81" gradientUnits="userSpaceOnUse"><stop offset="0" stop-color="#ffcb9b"/><stop offset="0.52" stop-color="#ffcb9b"/><stop offset="0.91" stop-color="#e5a678"/></linearGradient><linearGradient id="linear-gradient-2" x1="278.17" y1="407.26" x2="339.43" y2="407.26" xlink:href="#linear-gradient"/><linearGradient id="linear-gradient-3" x1="612.74" y1="232.83" x2="675.7" y2="232.83" xlink:href="#linear-gradient"/></defs><title>Logo Films by A. wasay-01</title><path class="cls-1" d="M698,313.91c-33.36-36.09-66.5-34.5-95.19,4.39-9.78,13.25-15.43,27.94-16.51,43.15-.68,9.6-2.09,21.92,5.17,34,5.25,8.74,12.47,13.24,16.68,15.79,16.41,10,33.7,8.89,39.89,8.43,17.77-1.35,21.08-7.84,33.34-6.46,13.2,1.47,23,10.5,29,17.49,2.83,2.21,11.74,9.69,10.93,18.82-.53,5.9-5.54,11.46-15.34,17.3-27.43,16.35-56.54,27.35-87.14,35.28-52,13.49-70.48,4.16-89.3-45.46-1.17-33.72-3.41-82.3-8-141-2.46-31.15-6.25-63.58-13.81-128.43-7.38-63.18-12.78-102.63-37.41-146.91A267.78,267.78,0,0,0,454.7,15.69c7.52,31.19,13,57.11,16.67,75.21,12.22,60.41,19.6,124.25,21.81,252.35.19,10.62,1.52,33.84-12.51,54.63a74.51,74.51,0,0,1-22.91,21.6,111.28,111.28,0,0,0-34.52,18.24c-8.21,6.41-18.77,14.66-25.66,28.81-4.29,8.82-9.94,20.09-9.41,43.38.59,26.31-11,35.73-31.71,43.48-44,16.46-83.06,39.7-116.41,70.51-13.51,12.49-33.6,37-43.17,48.62a220.19,220.19,0,0,1-28.34,29.05c-5.61,4.78-10.5,8.44-13.87,10.87a53.86,53.86,0,0,1-62.63.41A73.37,73.37,0,0,1,77,689.5c-1.09-2.72-5.72-14.17-5.25-27.49q.2-5.94.65-12.26c.31-4.34.7-8.54,1.14-12.59a114.5,114.5,0,0,0-3.51,73.89,96.83,96.83,0,0,0,35.24,44.36,63,63,0,0,0,62.93-3.32c5.76-4.82,14.42-12.23,24.59-21.64a660.56,660.56,0,0,0,61.85-65.6C274,641.92,312.22,612.44,395.17,585q4.51,5.64,9.07,11.57,3.92,5.1,7.63,10.12A130.48,130.48,0,0,0,423.57,621c2.55,2.69,10.63,11.23,20.15,17.31,7.56,4.84,26.83,17.16,45.3,11.05,19.64-6.48,26.6-29.88,29.61-40,6.92-23.29,1.25-43.46-1.71-52-.74-3-7.8-30.41-32-39.64,0,0-19.13-6.33-43.89,2.94a78.72,78.72,0,0,0-18.89,10.24l-.29.19c-12.74-16.6-4.31-30.91,4.17-45.21a62.42,62.42,0,0,1,15.42-20.39c11.16-9.61,20-9.81,33.35-19A87.25,87.25,0,0,0,496,425.62c1.15-1.54,2.56-2.34,3.36-2a2.32,2.32,0,0,1,1,1.1,5.32,5.32,0,0,0,.56,1.26c0,.22,0,.59,0,1.21.39,18,.23,36-.21,54-.37,15,2.55,35.65,15.72,52.19a87.43,87.43,0,0,0,16,15A92.34,92.34,0,0,0,552,558.46c19.57,7.06,64.87,15,105-11.75,9.49-6.32,19.37-12.14,28.41-19.06,30.4-23.17,54.25-50.32,52.7-91.9C744.86,388.51,729.51,348,698,313.91Zm-40,55.55c-3.24,0-5,.13-6.73,0-13-1.24-28.16-.85-30.24-18-1.14-9.3,8.65-13.1,16.67-12.54,16.42,1.16,33.79,7.38,38,23.11C679.11,374.85,663.42,367.46,657.94,369.46ZM465.58,566.87c6.87-.75,18,1,22.89,9.8.55,1,4.6,8.62.74,15.48-3.44,6.11-11.82,9.19-20.36,6.76-1.34,0-10.48-.26-16.34-7.2a19.66,19.66,0,0,1-4.81-11.57,10,10,0,0,1,0-1.76C448.53,572.37,458,567.69,465.58,566.87Z"/><path class="cls-2" d="M296.21,373.19c46.23,23.83,49.59,28.49,36.72,51.88-5.89,10.71-9.39,23.39-27.12,11.39C271.09,412.94,270.47,413.86,296.21,373.19Z"/><path class="cls-3" d="M635.86,199.69C644.8,199,677,223,675.66,230.93c-2.34,14-7.55,27.54-21,34.9-4.32,2.37-41.09-25.12-41.85-30.18C611.67,228.23,629.68,200.16,635.86,199.69Z"/></svg>